<svg width="484" height="512" viewBox="0 0 484 512" fill="none" xmlns="http://www.w3.org/2000/svg">
<path d="M436.915 475.815C436.465 475.475 435.785 475.305 434.875 475.305H432.495L431.525 479.845H434.635C435.495 479.845 436.215 479.615 436.755 479.155C437.295 478.695 437.565 478.075 437.565 477.285C437.565 476.645 437.345 476.145 436.915 475.815ZM413.365 477.295C412.985 476.635 412.455 476.125 411.765 475.755C411.085 475.395 410.295 475.215 409.395 475.215C408.605 475.215 407.865 475.365 407.195 475.665C406.515 475.965 405.915 476.385 405.415 476.915C404.915 477.455 404.525 478.075 404.245 478.775C403.965 479.485 403.825 480.245 403.825 481.055C403.825 481.955 404.025 482.745 404.415 483.405C404.805 484.075 405.345 484.585 406.025 484.945C406.705 485.315 407.495 485.495 408.375 485.495C409.175 485.495 409.915 485.345 410.585 485.045C411.265 484.745 411.855 484.325 412.355 483.795C412.865 483.255 413.255 482.635 413.535 481.925C413.805 481.215 413.945 480.455 413.945 479.645C413.945 478.755 413.755 477.965 413.365 477.295ZM387.265 475.885C386.785 475.535 386.095 475.365 385.185 475.365H382.825L381.835 480.035H385.055C385.965 480.035 386.675 479.805 387.205 479.335C387.735 478.865 387.995 478.235 387.995 477.445C387.995 476.755 387.755 476.235 387.265 475.885ZM330.475 404.925L316.545 432.455H332.265L330.475 404.925ZM305.215 477.295C304.835 476.635 304.295 476.125 303.605 475.755C302.925 475.395 302.135 475.215 301.245 475.215C300.445 475.215 299.705 475.365 299.035 475.665C298.355 475.965 297.765 476.385 297.255 476.915C296.755 477.455 296.365 478.075 296.085 478.775C295.805 479.485 295.665 480.245 295.665 481.055C295.665 481.955 295.865 482.745 296.255 483.405C296.645 484.075 297.185 484.585 297.865 484.945C298.545 485.315 299.335 485.495 300.215 485.495C301.015 485.495 301.755 485.345 302.435 485.045C303.105 484.745 303.695 484.325 304.205 483.795C304.705 483.255 305.095 482.635 305.375 481.925C305.645 481.215 305.785 480.455 305.785 479.645C305.785 478.755 305.595 477.965 305.215 477.295ZM230.775 476.075L227.205 482.075H231.885L230.775 476.075ZM167.565 476.075L164.005 482.075H168.675L167.565 476.075ZM106.005 475.815C105.565 475.475 104.895 475.305 103.975 475.305H101.595L100.615 479.845H103.725C104.605 479.845 105.305 479.615 105.845 479.155C106.395 478.695 106.665 478.075 106.665 477.285C106.665 476.645 106.445 476.145 106.005 475.815ZM29.685 476.075L26.125 482.075H30.795L29.685 476.075ZM29.685 476.075L26.125 482.075H30.795L29.685 476.075ZM106.005 475.815C105.565 475.475 104.895 475.305 103.975 475.305H101.595L100.615 479.845H103.725C104.605 479.845 105.305 479.615 105.845 479.155C106.395 478.695 106.665 478.075 106.665 477.285C106.665 476.645 106.445 476.145 106.005 475.815ZM167.565 476.075L164.005 482.075H168.675L167.565 476.075ZM230.775 476.075L227.205 482.075H231.885L230.775 476.075ZM305.215 477.295C304.835 476.635 304.295 476.125 303.605 475.755C302.925 475.395 302.135 475.215 301.245 475.215C300.445 475.215 299.705 475.365 299.035 475.665C298.355 475.965 297.765 476.385 297.255 476.915C296.755 477.455 296.365 478.075 296.085 478.775C295.805 479.485 295.665 480.245 295.665 481.055C295.665 481.955 295.865 482.745 296.255 483.405C296.645 484.075 297.185 484.585 297.865 484.945C298.545 485.315 299.335 485.495 300.215 485.495C301.015 485.495 301.755 485.345 302.435 485.045C303.105 484.745 303.695 484.325 304.205 483.795C304.705 483.255 305.095 482.635 305.375 481.925C305.645 481.215 305.785 480.455 305.785 479.645C305.785 478.755 305.595 477.965 305.215 477.295ZM313.945 314.635L313.305 316.595H314.585L313.945 314.635ZM330.475 404.925L316.545 432.455H332.265L330.475 404.925ZM387.265 475.885C386.785 475.535 386.095 475.365 385.185 475.365H382.825L381.835 480.035H385.055C385.965 480.035 386.675 479.805 387.205 479.335C387.735 478.865 387.995 478.235 387.995 477.445C387.995 476.755 387.755 476.235 387.265 475.885ZM413.365 477.295C412.985 476.635 412.455 476.125 411.765 475.755C411.085 475.395 410.295 475.215 409.395 475.215C408.605 475.215 407.865 475.365 407.195 475.665C406.515 475.965 405.915 476.385 405.415 476.915C404.915 477.455 404.525 478.075 404.245 478.775C403.965 479.485 403.825 480.245 403.825 481.055C403.825 481.955 404.025 482.745 404.415 483.405C404.805 484.075 405.345 484.585 406.025 484.945C406.705 485.315 407.495 485.495 408.375 485.495C409.175 485.495 409.915 485.345 410.585 485.045C411.265 484.745 411.855 484.325 412.355 483.795C412.865 483.255 413.255 482.635 413.535 481.925C413.805 481.215 413.945 480.455 413.945 479.645C413.945 478.755 413.755 477.965 413.365 477.295ZM436.915 475.815C436.465 475.475 435.785 475.305 434.875 475.305H432.495L431.525 479.845H434.635C435.495 479.845 436.215 479.615 436.755 479.155C437.295 478.695 437.565 478.075 437.565 477.285C437.565 476.645 437.345 476.145 436.915 475.815ZM29.685 476.075L26.125 482.075H30.795L29.685 476.075ZM106.005 475.815C105.565 475.475 104.895 475.305 103.975 475.305H101.595L100.615 479.845H103.725C104.605 479.845 105.305 479.615 105.845 479.155C106.395 478.695 106.665 478.075 106.665 477.285C106.665 476.645 106.445 476.145 106.005 475.815ZM167.565 476.075L164.005 482.075H168.675L167.565 476.075ZM230.775 476.075L227.205 482.075H231.885L230.775 476.075ZM305.215 477.295C304.835 476.635 304.295 476.125 303.605 475.755C302.925 475.395 302.135 475.215 301.245 475.215C300.445 475.215 299.705 475.365 299.035 475.665C298.355 475.965 297.765 476.385 297.255 476.915C296.755 477.455 296.365 478.075 296.085 478.775C295.805 479.485 295.665 480.245 295.665 481.055C295.665 481.955 295.865 482.745 296.255 483.405C296.645 484.075 297.185 484.585 297.865 484.945C298.545 485.315 299.335 485.495 300.215 485.495C301.015 485.495 301.755 485.345 302.435 485.045C303.105 484.745 303.695 484.325 304.205 483.795C304.705 483.255 305.095 482.635 305.375 481.925C305.645 481.215 305.785 480.455 305.785 479.645C305.785 478.755 305.595 477.965 305.215 477.295ZM330.475 404.925L316.545 432.455H332.265L330.475 404.925ZM387.265 475.885C386.785 475.535 386.095 475.365 385.185 475.365H382.825L381.835 480.035H385.055C385.965 480.035 386.675 479.805 387.205 479.335C387.735 478.865 387.995 478.235 387.995 477.445C387.995 476.755 387.755 476.235 387.265 475.885ZM413.365 477.295C412.985 476.635 412.455 476.125 411.765 475.755C411.085 475.395 410.295 475.215 409.395 475.215C408.605 475.215 407.865 475.365 407.195 475.665C406.515 475.965 405.915 476.385 405.415 476.915C404.915 477.455 404.525 478.075 404.245 478.775C403.965 479.485 403.825 480.245 403.825 481.055C403.825 481.955 404.025 482.745 404.415 483.405C404.805 484.075 405.345 484.585 406.025 484.945C406.705 485.315 407.495 485.495 408.375 485.495C409.175 485.495 409.915 485.345 410.585 485.045C411.265 484.745 411.855 484.325 412.355 483.795C412.865 483.255 413.255 482.635 413.535 481.925C413.805 481.215 413.945 480.455 413.945 479.645C413.945 478.755 413.755 477.965 413.365 477.295ZM436.915 475.815C436.465 475.475 435.785 475.305 434.875 475.305H432.495L431.525 479.845H434.635C435.495 479.845 436.215 479.615 436.755 479.155C437.295 478.695 437.565 478.075 437.565 477.285C437.565 476.645 437.345 476.145 436.915 475.815ZM436.915 475.815C436.465 475.475 435.785 475.305 434.875 475.305H432.495L431.525 479.845H434.635C435.495 479.845 436.215 479.615 436.755 479.155C437.295 478.695 437.565 478.075 437.565 477.285C437.565 476.645 437.345 476.145 436.915 475.815ZM413.365 477.295C412.985 476.635 412.455 476.125 411.765 475.755C411.085 475.395 410.295 475.215 409.395 475.215C408.605 475.215 407.865 475.365 407.195 475.665C406.515 475.965 405.915 476.385 405.415 476.915C404.915 477.455 404.525 478.075 404.245 478.775C403.965 479.485 403.825 480.245 403.825 481.055C403.825 481.955 404.025 482.745 404.415 483.405C404.805 484.075 405.345 484.585 406.025 484.945C406.705 485.315 407.495 485.495 408.375 485.495C409.175 485.495 409.915 485.345 410.585 485.045C411.265 484.745 411.855 484.325 412.355 483.795C412.865 483.255 413.255 482.635 413.535 481.925C413.805 481.215 413.945 480.455 413.945 479.645C413.945 478.755 413.755 477.965 413.365 477.295ZM387.265 475.885C386.785 475.535 386.095 475.365 385.185 475.365H382.825L381.835 480.035H385.055C385.965 480.035 386.675 479.805 387.205 479.335C387.735 478.865 387.995 478.235 387.995 477.445C387.995 476.755 387.755 476.235 387.265 475.885ZM330.475 404.925L316.545 432.455H332.265L330.475 404.925ZM305.215 477.295C304.835 476.635 304.295 476.125 303.605 475.755C302.925 475.395 302.135 475.215 301.245 475.215C300.445 475.215 299.705 475.365 299.035 475.665C298.355 475.965 297.765 476.385 297.255 476.915C296.755 477.455 296.365 478.075 296.085 478.775C295.805 479.485 295.665 480.245 295.665 481.055C295.665 481.955 295.865 482.745 296.255 483.405C296.645 484.075 297.185 484.585 297.865 484.945C298.545 485.315 299.335 485.495 300.215 485.495C301.015 485.495 301.755 485.345 302.435 485.045C303.105 484.745 303.695 484.325 304.205 483.795C304.705 483.255 305.095 482.635 305.375 481.925C305.645 481.215 305.785 480.455 305.785 479.645C305.785 478.755 305.595 477.965 305.215 477.295ZM230.775 476.075L227.205 482.075H231.885L230.775 476.075ZM167.565 476.075L164.005 482.075H168.675L167.565 476.075ZM106.005 475.815C105.565 475.475 104.895 475.305 103.975 475.305H101.595L100.615 479.845H103.725C104.605 479.845 105.305 479.615 105.845 479.155C106.395 478.695 106.665 478.075 106.665 477.285C106.665 476.645 106.445 476.145 106.005 475.815ZM29.685 476.075L26.125 482.075H30.795L29.685 476.075ZM330.475 404.925L316.545 432.455H332.265L330.475 404.925ZM330.475 404.925L316.545 432.455H332.265L330.475 404.925ZM330.475 404.925L316.545 432.455H332.265L330.475 404.925ZM330.475 404.925L316.545 432.455H332.265L330.475 404.925ZM29.685 476.075L26.125 482.075H30.795L29.685 476.075ZM330.475 404.925L316.545 432.455H332.265L330.475 404.925ZM330.475 404.925L316.545 432.455H332.265L330.475 404.925ZM29.685 476.075L26.125 482.075H30.795L29.685 476.075ZM29.685 476.075L26.125 482.075H30.795L29.685 476.075ZM106.005 475.815C105.565 475.475 104.895 475.305 103.975 475.305H101.595L100.615 479.845H103.725C104.605 479.845 105.305 479.615 105.845 479.155C106.395 478.695 106.665 478.075 106.665 477.285C106.665 476.645 106.445 476.145 106.005 475.815ZM330.475 404.925L316.545 432.455H332.265L330.475 404.925ZM330.475 404.925L316.545 432.455H332.265L330.475 404.925ZM106.005 475.815C105.565 475.475 104.895 475.305 103.975 475.305H101.595L100.615 479.845H103.725C104.605 479.845 105.305 479.615 105.845 479.155C106.395 478.695 106.665 478.075 106.665 477.285C106.665 476.645 106.445 476.145 106.005 475.815ZM29.685 476.075L26.125 482.075H30.795L29.685 476.075ZM29.685 476.075L26.125 482.075H30.795L29.685 476.075ZM106.005 475.815C105.565 475.475 104.895 475.305 103.975 475.305H101.595L100.615 479.845H103.725C104.605 479.845 105.305 479.615 105.845 479.155C106.395 478.695 106.665 478.075 106.665 477.285C106.665 476.645 106.445 476.145 106.005 475.815ZM330.475 404.925L316.545 432.455H332.265L330.475 404.925ZM330.475 404.925L316.545 432.455H332.265L330.475 404.925ZM106.005 475.815C105.565 475.475 104.895 475.305 103.975 475.305H101.595L100.615 479.845H103.725C104.605 479.845 105.305 479.615 105.845 479.155C106.395 478.695 106.665 478.075 106.665 477.285C106.665 476.645 106.445 476.145 106.005 475.815ZM29.685 476.075L26.125 482.075H30.795L29.685 476.075ZM29.685 476.075L26.125 482.075H30.795L29.685 476.075ZM106.005 475.815C105.565 475.475 104.895 475.305 103.975 475.305H101.595L100.615 479.845H103.725C104.605 479.845 105.305 479.615 105.845 479.155C106.395 478.695 106.665 478.075 106.665 477.285C106.665 476.645 106.445 476.145 106.005 475.815ZM167.565 476.075L164.005 482.075H168.675L167.565 476.075ZM330.475 404.925L316.545 432.455H332.265L330.475 404.925ZM330.475 404.925L316.545 432.455H332.265L330.475 404.925ZM167.565 476.075L164.005 482.075H168.675L167.565 476.075ZM106.005 475.815C105.565 475.475 104.895 475.305 103.975 475.305H101.595L100.615 479.845H103.725C104.605 479.845 105.305 479.615 105.845 479.155C106.395 478.695 106.665 478.075 106.665 477.285C106.665 476.645 106.445 476.145 106.005 475.815ZM29.685 476.075L26.125 482.075H30.795L29.685 476.075ZM29.685 476.075L26.125 482.075H30.795L29.685 476.075ZM106.005 475.815C105.565 475.475 104.895 475.305 103.975 475.305H101.595L100.615 479.845H103.725C104.605 479.845 105.305 479.615 105.845 479.155C106.395 478.695 106.665 478.075 106.665 477.285C106.665 476.645 106.445 476.145 106.005 475.815ZM167.565 476.075L164.005 482.075H168.675L167.565 476.075ZM230.775 476.075L227.205 482.075H231.885L230.775 476.075ZM330.475 404.925L316.545 432.455H332.265L330.475 404.925ZM330.475 404.925L316.545 432.455H332.265L330.475 404.925ZM230.775 476.075L227.205 482.075H231.885L230.775 476.075ZM167.565 476.075L164.005 482.075H168.675L167.565 476.075ZM106.005 475.815C105.565 475.475 104.895 475.305 103.975 475.305H101.595L100.615 479.845H103.725C104.605 479.845 105.305 479.615 105.845 479.155C106.395 478.695 106.665 478.075 106.665 477.285C106.665 476.645 106.445 476.145 106.005 475.815ZM29.685 476.075L26.125 482.075H30.795L29.685 476.075ZM29.685 476.075L26.125 482.075H30.795L29.685 476.075ZM106.005 475.815C105.565 475.475 104.895 475.305 103.975 475.305H101.595L100.615 479.845H103.725C104.605 479.845 105.305 479.615 105.845 479.155C106.395 478.695 106.665 478.075 106.665 477.285C106.665 476.645 106.445 476.145 106.005 475.815ZM167.565 476.075L164.005 482.075H168.675L167.565 476.075ZM230.775 476.075L227.205 482.075H231.885L230.775 476.075ZM305.215 477.295C304.835 476.635 304.295 476.125 303.605 475.755C302.925 475.395 302.135 475.215 301.245 475.215C300.445 475.215 299.705 475.365 299.035 475.665C298.355 475.965 297.765 476.385 297.255 476.915C296.755 477.455 296.365 478.075 296.085 478.775C295.805 479.485 295.665 480.245 295.665 481.055C295.665 481.955 295.865 482.745 296.255 483.405C296.645 484.075 297.185 484.585 297.865 484.945C298.545 485.315 299.335 485.495 300.215 485.495C301.015 485.495 301.755 485.345 302.435 485.045C303.105 484.745 303.695 484.325 304.205 483.795C304.705 483.255 305.095 482.635 305.375 481.925C305.645 481.215 305.785 480.455 305.785 479.645C305.785 478.755 305.595 477.965 305.215 477.295ZM330.475 404.925L316.545 432.455H332.265L330.475 404.925ZM330.475 404.925L316.545 432.455H332.265L330.475 404.925ZM305.215 477.295C304.835 476.635 304.295 476.125 303.605 475.755C302.925 475.395 302.135 475.215 301.245 475.215C300.445 475.215 299.705 475.365 299.035 475.665C298.355 475.965 297.765 476.385 297.255 476.915C296.755 477.455 296.365 478.075 296.085 478.775C295.805 479.485 295.665 480.245 295.665 481.055C295.665 481.955 295.865 482.745 296.255 483.405C296.645 484.075 297.185 484.585 297.865 484.945C298.545 485.315 299.335 485.495 300.215 485.495C301.015 485.495 301.755 485.345 302.435 485.045C303.105 484.745 303.695 484.325 304.205 483.795C304.705 483.255 305.095 482.635 305.375 481.925C305.645 481.215 305.785 480.455 305.785 479.645C305.785 478.755 305.595 477.965 305.215 477.295ZM230.775 476.075L227.205 482.075H231.885L230.775 476.075ZM167.565 476.075L164.005 482.075H168.675L167.565 476.075ZM106.005 475.815C105.565 475.475 104.895 475.305 103.975 475.305H101.595L100.615 479.845H103.725C104.605 479.845 105.305 479.615 105.845 479.155C106.395 478.695 106.665 478.075 106.665 477.285C106.665 476.645 106.445 476.145 106.005 475.815ZM29.685 476.075L26.125 482.075H30.795L29.685 476.075ZM29.685 476.075L26.125 482.075H30.795L29.685 476.075ZM106.005 475.815C105.565 475.475 104.895 475.305 103.975 475.305H101.595L100.615 479.845H103.725C104.605 479.845 105.305 479.615 105.845 479.155C106.395 478.695 106.665 478.075 106.665 477.285C106.665 476.645 106.445 476.145 106.005 475.815ZM167.565 476.075L164.005 482.075H168.675L167.565 476.075ZM230.775 476.075L227.205 482.075H231.885L230.775 476.075ZM305.215 477.295C304.835 476.635 304.295 476.125 303.605 475.755C302.925 475.395 302.135 475.215 301.245 475.215C300.445 475.215 299.705 475.365 299.035 475.665C298.355 475.965 297.765 476.385 297.255 476.915C296.755 477.455 296.365 478.075 296.085 478.775C295.805 479.485 295.665 480.245 295.665 481.055C295.665 481.955 295.865 482.745 296.255 483.405C296.645 484.075 297.185 484.585 297.865 484.945C298.545 485.315 299.335 485.495 300.215 485.495C301.015 485.495 301.755 485.345 302.435 485.045C303.105 484.745 303.695 484.325 304.205 483.795C304.705 483.255 305.095 482.635 305.375 481.925C305.645 481.215 305.785 480.455 305.785 479.645C305.785 478.755 305.595 477.965 305.215 477.295ZM330.475 404.925L316.545 432.455H332.265L330.475 404.925ZM330.475 404.925L316.545 432.455H332.265L330.475 404.925ZM305.215 477.295C304.835 476.635 304.295 476.125 303.605 475.755C302.925 475.395 302.135 475.215 301.245 475.215C300.445 475.215 299.705 475.365 299.035 475.665C298.355 475.965 297.765 476.385 297.255 476.915C296.755 477.455 296.365 478.075 296.085 478.775C295.805 479.485 295.665 480.245 295.665 481.055C295.665 481.955 295.865 482.745 296.255 483.405C296.645 484.075 297.185 484.585 297.865 484.945C298.545 485.315 299.335 485.495 300.215 485.495C301.015 485.495 301.755 485.345 302.435 485.045C303.105 484.745 303.695 484.325 304.205 483.795C304.705 483.255 305.095 482.635 305.375 481.925C305.645 481.215 305.785 480.455 305.785 479.645C305.785 478.755 305.595 477.965 305.215 477.295ZM230.775 476.075L227.205 482.075H231.885L230.775 476.075ZM167.565 476.075L164.005 482.075H168.675L167.565 476.075ZM106.005 475.815C105.565 475.475 104.895 475.305 103.975 475.305H101.595L100.615 479.845H103.725C104.605 479.845 105.305 479.615 105.845 479.155C106.395 478.695 106.665 478.075 106.665 477.285C106.665 476.645 106.445 476.145 106.005 475.815ZM29.685 476.075L26.125 482.075H30.795L29.685 476.075ZM29.685 476.075L26.125 482.075H30.795L29.685 476.075ZM106.005 475.815C105.565 475.475 104.895 475.305 103.975 475.305H101.595L100.615 479.845H103.725C104.605 479.845 105.305 479.615 105.845 479.155C106.395 478.695 106.665 478.075 106.665 477.285C106.665 476.645 106.445 476.145 106.005 475.815ZM167.565 476.075L164.005 482.075H168.675L167.565 476.075ZM230.775 476.075L227.205 482.075H231.885L230.775 476.075ZM305.215 477.295C304.835 476.635 304.295 476.125 303.605 475.755C302.925 475.395 302.135 475.215 301.245 475.215C300.445 475.215 299.705 475.365 299.035 475.665C298.355 475.965 297.765 476.385 297.255 476.915C296.755 477.455 296.365 478.075 296.085 478.775C295.805 479.485 295.665 480.245 295.665 481.055C295.665 481.955 295.865 482.745 296.255 483.405C296.645 484.075 297.185 484.585 297.865 484.945C298.545 485.315 299.335 485.495 300.215 485.495C301.015 485.495 301.755 485.345 302.435 485.045C303.105 484.745 303.695 484.325 304.205 483.795C304.705 483.255 305.095 482.635 305.375 481.925C305.645 481.215 305.785 480.455 305.785 479.645C305.785 478.755 305.595 477.965 305.215 477.295ZM330.475 404.925L316.545 432.455H332.265L330.475 404.925ZM387.265 475.885C386.785 475.535 386.095 475.365 385.185 475.365H382.825L381.835 480.035H385.055C385.965 480.035 386.675 479.805 387.205 479.335C387.735 478.865 387.995 478.235 387.995 477.445C387.995 476.755 387.755 476.235 387.265 475.885ZM413.365 477.295C412.985 476.635 412.455 476.125 411.765 475.755C411.085 475.395 410.295 475.215 409.395 475.215C408.605 475.215 407.865 475.365 407.195 475.665C406.515 475.965 405.915 476.385 405.415 476.915C404.915 477.455 404.525 478.075 404.245 478.775C403.965 479.485 403.825 480.245 403.825 481.055C403.825 481.955 404.025 482.745 404.415 483.405C404.805 484.075 405.345 484.585 406.025 484.945C406.705 485.315 407.495 485.495 408.375 485.495C409.175 485.495 409.915 485.345 410.585 485.045C411.265 484.745 411.855 484.325 412.355 483.795C412.865 483.255 413.255 482.635 413.535 481.925C413.805 481.215 413.945 480.455 413.945 479.645C413.945 478.755 413.755 477.965 413.365 477.295ZM413.365 477.295C412.985 476.635 412.455 476.125 411.765 475.755C411.085 475.395 410.295 475.215 409.395 475.215C408.605 475.215 407.865 475.365 407.195 475.665C406.515 475.965 405.915 476.385 405.415 476.915C404.915 477.455 404.525 478.075 404.245 478.775C403.965 479.485 403.825 480.245 403.825 481.055C403.825 481.955 404.025 482.745 404.415 483.405C404.805 484.075 405.345 484.585 406.025 484.945C406.705 485.315 407.495 485.495 408.375 485.495C409.175 485.495 409.915 485.345 410.585 485.045C411.265 484.745 411.855 484.325 412.355 483.795C412.865 483.255 413.255 482.635 413.535 481.925C413.805 481.215 413.945 480.455 413.945 479.645C413.945 478.755 413.755 477.965 413.365 477.295ZM387.265 475.885C386.785 475.535 386.095 475.365 385.185 475.365H382.825L381.835 480.035H385.055C385.965 480.035 386.675 479.805 387.205 479.335C387.735 478.865 387.995 478.235 387.995 477.445C387.995 476.755 387.755 476.235 387.265 475.885ZM330.475 404.925L316.545 432.455H332.265L330.475 404.925ZM305.215 477.295C304.835 476.635 304.295 476.125 303.605 475.755C302.925 475.395 302.135 475.215 301.245 475.215C300.445 475.215 299.705 475.365 299.035 475.665C298.355 475.965 297.765 476.385 297.255 476.915C296.755 477.455 296.365 478.075 296.085 478.775C295.805 479.485 295.665 480.245 295.665 481.055C295.665 481.955 295.865 482.745 296.255 483.405C296.645 484.075 297.185 484.585 297.865 484.945C298.545 485.315 299.335 485.495 300.215 485.495C301.015 485.495 301.755 485.345 302.435 485.045C303.105 484.745 303.695 484.325 304.205 483.795C304.705 483.255 305.095 482.635 305.375 481.925C305.645 481.215 305.785 480.455 305.785 479.645C305.785 478.755 305.595 477.965 305.215 477.295ZM230.775 476.075L227.205 482.075H231.885L230.775 476.075ZM167.565 476.075L164.005 482.075H168.675L167.565 476.075ZM106.005 475.815C105.565 475.475 104.895 475.305 103.975 475.305H101.595L100.615 479.845H103.725C104.605 479.845 105.305 479.615 105.845 479.155C106.395 478.695 106.665 478.075 106.665 477.285C106.665 476.645 106.445 476.145 106.005 475.815ZM29.685 476.075L26.125 482.075H30.795L29.685 476.075ZM29.685 476.075L26.125 482.075H30.795L29.685 476.075ZM106.005 475.815C105.565 475.475 104.895 475.305 103.975 475.305H101.595L100.615 479.845H103.725C104.605 479.845 105.305 479.615 105.845 479.155C106.395 478.695 106.665 478.075 106.665 477.285C106.665 476.645 106.445 476.145 106.005 475.815ZM167.565 476.075L164.005 482.075H168.675L167.565 476.075ZM230.775 476.075L227.205 482.075H231.885L230.775 476.075ZM305.215 477.295C304.835 476.635 304.295 476.125 303.605 475.755C302.925 475.395 302.135 475.215 301.245 475.215C300.445 475.215 299.705 475.365 299.035 475.665C298.355 475.965 297.765 476.385 297.255 476.915C296.755 477.455 296.365 478.075 296.085 478.775C295.805 479.485 295.665 480.245 295.665 481.055C295.665 481.955 295.865 482.745 296.255 483.405C296.645 484.075 297.185 484.585 297.865 484.945C298.545 485.315 299.335 485.495 300.215 485.495C301.015 485.495 301.755 485.345 302.435 485.045C303.105 484.745 303.695 484.325 304.205 483.795C304.705 483.255 305.095 482.635 305.375 481.925C305.645 481.215 305.785 480.455 305.785 479.645C305.785 478.755 305.595 477.965 305.215 477.295ZM330.475 404.925L316.545 432.455H332.265L330.475 404.925ZM387.265 475.885C386.785 475.535 386.095 475.365 385.185 475.365H382.825L381.835 480.035H385.055C385.965 480.035 386.675 479.805 387.205 479.335C387.735 478.865 387.995 478.235 387.995 477.445C387.995 476.755 387.755 476.235 387.265 475.885ZM413.365 477.295C412.985 476.635 412.455 476.125 411.765 475.755C411.085 475.395 410.295 475.215 409.395 475.215C408.605 475.215 407.865 475.365 407.195 475.665C406.515 475.965 405.915 476.385 405.415 476.915C404.915 477.455 404.525 478.075 404.245 478.775C403.965 479.485 403.825 480.245 403.825 481.055C403.825 481.955 404.025 482.745 404.415 483.405C404.805 484.075 405.345 484.585 406.025 484.945C406.705 485.315 407.495 485.495 408.375 485.495C409.175 485.495 409.915 485.345 410.585 485.045C411.265 484.745 411.855 484.325 412.355 483.795C412.865 483.255 413.255 482.635 413.535 481.925C413.805 481.215 413.945 480.455 413.945 479.645C413.945 478.755 413.755 477.965 413.365 477.295ZM436.915 475.815C436.465 475.475 435.785 475.305 434.875 475.305H432.495L431.525 479.845H434.635C435.495 479.845 436.215 479.615 436.755 479.155C437.295 478.695 437.565 478.075 437.565 477.285C437.565 476.645 437.345 476.145 436.915 475.815ZM29.685 476.075L26.125 482.075H30.795L29.685 476.075ZM106.005 475.815C105.565 475.475 104.895 475.305 103.975 475.305H101.595L100.615 479.845H103.725C104.605 479.845 105.305 479.615 105.845 479.155C106.395 478.695 106.665 478.075 106.665 477.285C106.665 476.645 106.445 476.145 106.005 475.815ZM167.565 476.075L164.005 482.075H168.675L167.565 476.075ZM230.775 476.075L227.205 482.075H231.885L230.775 476.075ZM305.215 477.295C304.835 476.635 304.295 476.125 303.605 475.755C302.925 475.395 302.135 475.215 301.245 475.215C300.445 475.215 299.705 475.365 299.035 475.665C298.355 475.965 297.765 476.385 297.255 476.915C296.755 477.455 296.365 478.075 296.085 478.775C295.805 479.485 295.665 480.245 295.665 481.055C295.665 481.955 295.865 482.745 296.255 483.405C296.645 484.075 297.185 484.585 297.865 484.945C298.545 485.315 299.335 485.495 300.215 485.495C301.015 485.495 301.755 485.345 302.435 485.045C303.105 484.745 303.695 484.325 304.205 483.795C304.705 483.255 305.095 482.635 305.375 481.925C305.645 481.215 305.785 480.455 305.785 479.645C305.785 478.755 305.595 477.965 305.215 477.295ZM330.475 404.925L316.545 432.455H332.265L330.475 404.925ZM387.265 475.885C386.785 475.535 386.095 475.365 385.185 475.365H382.825L381.835 480.035H385.055C385.965 480.035 386.675 479.805 387.205 479.335C387.735 478.865 387.995 478.235 387.995 477.445C387.995 476.755 387.755 476.235 387.265 475.885ZM413.365 477.295C412.985 476.635 412.455 476.125 411.765 475.755C411.085 475.395 410.295 475.215 409.395 475.215C408.605 475.215 407.865 475.365 407.195 475.665C406.515 475.965 405.915 476.385 405.415 476.915C404.915 477.455 404.525 478.075 404.245 478.775C403.965 479.485 403.825 480.245 403.825 481.055C403.825 481.955 404.025 482.745 404.415 483.405C404.805 484.075 405.345 484.585 406.025 484.945C406.705 485.315 407.495 485.495 408.375 485.495C409.175 485.495 409.915 485.345 410.585 485.045C411.265 484.745 411.855 484.325 412.355 483.795C412.865 483.255 413.255 482.635 413.535 481.925C413.805 481.215 413.945 480.455 413.945 479.645C413.945 478.755 413.755 477.965 413.365 477.295ZM436.915 475.815C436.465 475.475 435.785 475.305 434.875 475.305H432.495L431.525 479.845H434.635C435.495 479.845 436.215 479.615 436.755 479.155C437.295 478.695 437.565 478.075 437.565 477.285C437.565 476.645 437.345 476.145 436.915 475.815ZM436.915 475.815C436.465 475.475 435.785 475.305 434.875 475.305H432.495L431.525 479.845H434.635C435.495 479.845 436.215 479.615 436.755 479.155C437.295 478.695 437.565 478.075 437.565 477.285C437.565 476.645 437.345 476.145 436.915 475.815ZM413.365 477.295C412.985 476.635 412.455 476.125 411.765 475.755C411.085 475.395 410.295 475.215 409.395 475.215C408.605 475.215 407.865 475.365 407.195 475.665C406.515 475.965 405.915 476.385 405.415 476.915C404.915 477.455 404.525 478.075 404.245 478.775C403.965 479.485 403.825 480.245 403.825 481.055C403.825 481.955 404.025 482.745 404.415 483.405C404.805 484.075 405.345 484.585 406.025 484.945C406.705 485.315 407.495 485.495 408.375 485.495C409.175 485.495 409.915 485.345 410.585 485.045C411.265 484.745 411.855 484.325 412.355 483.795C412.865 483.255 413.255 482.635 413.535 481.925C413.805 481.215 413.945 480.455 413.945 479.645C413.945 478.755 413.755 477.965 413.365 477.295ZM387.265 475.885C386.785 475.535 386.095 475.365 385.185 475.365H382.825L381.835 480.035H385.055C385.965 480.035 386.675 479.805 387.205 479.335C387.735 478.865 387.995 478.235 387.995 477.445C387.995 476.755 387.755 476.235 387.265 475.885ZM330.475 404.925L316.545 432.455H332.265L330.475 404.925ZM305.215 477.295C304.835 476.635 304.295 476.125 303.605 475.755C302.925 475.395 302.135 475.215 301.245 475.215C300.445 475.215 299.705 475.365 299.035 475.665C298.355 475.965 297.765 476.385 297.255 476.915C296.755 477.455 296.365 478.075 296.085 478.775C295.805 479.485 295.665 480.245 295.665 481.055C295.665 481.955 295.865 482.745 296.255 483.405C296.645 484.075 297.185 484.585 297.865 484.945C298.545 485.315 299.335 485.495 300.215 485.495C301.015 485.495 301.755 485.345 302.435 485.045C303.105 484.745 303.695 484.325 304.205 483.795C304.705 483.255 305.095 482.635 305.375 481.925C305.645 481.215 305.785 480.455 305.785 479.645C305.785 478.755 305.595 477.965 305.215 477.295ZM230.775 476.075L227.205 482.075H231.885L230.775 476.075ZM167.565 476.075L164.005 482.075H168.675L167.565 476.075ZM106.005 475.815C105.565 475.475 104.895 475.305 103.975 475.305H101.595L100.615 479.845H103.725C104.605 479.845 105.305 479.615 105.845 479.155C106.395 478.695 106.665 478.075 106.665 477.285C106.665 476.645 106.445 476.145 106.005 475.815ZM29.685 476.075L26.125 482.075H30.795L29.685 476.075ZM29.685 476.075L26.125 482.075H30.795L29.685 476.075ZM106.005 475.815C105.565 475.475 104.895 475.305 103.975 475.305H101.595L100.615 479.845H103.725C104.605 479.845 105.305 479.615 105.845 479.155C106.395 478.695 106.665 478.075 106.665 477.285C106.665 476.645 106.445 476.145 106.005 475.815ZM167.565 476.075L164.005 482.075H168.675L167.565 476.075ZM230.775 476.075L227.205 482.075H231.885L230.775 476.075ZM305.215 477.295C304.835 476.635 304.295 476.125 303.605 475.755C302.925 475.395 302.135 475.215 301.245 475.215C300.445 475.215 299.705 475.365 299.035 475.665C298.355 475.965 297.765 476.385 297.255 476.915C296.755 477.455 296.365 478.075 296.085 478.775C295.805 479.485 295.665 480.245 295.665 481.055C295.665 481.955 295.865 482.745 296.255 483.405C296.645 484.075 297.185 484.585 297.865 484.945C298.545 485.315 299.335 485.495 300.215 485.495C301.015 485.495 301.755 485.345 302.435 485.045C303.105 484.745 303.695 484.325 304.205 483.795C304.705 483.255 305.095 482.635 305.375 481.925C305.645 481.215 305.785 480.455 305.785 479.645C305.785 478.755 305.595 477.965 305.215 477.295ZM330.475 404.925L316.545 432.455H332.265L330.475 404.925ZM387.265 475.885C386.785 475.535 386.095 475.365 385.185 475.365H382.825L381.835 480.035H385.055C385.965 480.035 386.675 479.805 387.205 479.335C387.735 478.865 387.995 478.235 387.995 477.445C387.995 476.755 387.755 476.235 387.265 475.885ZM387.265 475.885C386.785 475.535 386.095 475.365 385.185 475.365H382.825L381.835 480.035H385.055C385.965 480.035 386.675 479.805 387.205 479.335C387.735 478.865 387.995 478.235 387.995 477.445C387.995 476.755 387.755 476.235 387.265 475.885ZM330.475 404.925L316.545 432.455H332.265L330.475 404.925ZM305.215 477.295C304.835 476.635 304.295 476.125 303.605 475.755C302.925 475.395 302.135 475.215 301.245 475.215C300.445 475.215 299.705 475.365 299.035 475.665C298.355 475.965 297.765 476.385 297.255 476.915C296.755 477.455 296.365 478.075 296.085 478.775C295.805 479.485 295.665 480.245 295.665 481.055C295.665 481.955 295.865 482.745 296.255 483.405C296.645 484.075 297.185 484.585 297.865 484.945C298.545 485.315 299.335 485.495 300.215 485.495C301.015 485.495 301.755 485.345 302.435 485.045C303.105 484.745 303.695 484.325 304.205 483.795C304.705 483.255 305.095 482.635 305.375 481.925C305.645 481.215 305.785 480.455 305.785 479.645C305.785 478.755 305.595 477.965 305.215 477.295ZM230.775 476.075L227.205 482.075H231.885L230.775 476.075ZM167.565 476.075L164.005 482.075H168.675L167.565 476.075ZM106.005 475.815C105.565 475.475 104.895 475.305 103.975 475.305H101.595L100.615 479.845H103.725C104.605 479.845 105.305 479.615 105.845 479.155C106.395 478.695 106.665 478.075 106.665 477.285C106.665 476.645 106.445 476.145 106.005 475.815ZM29.685 476.075L26.125 482.075H30.795L29.685 476.075ZM29.685 476.075L26.125 482.075H30.795L29.685 476.075ZM106.005 475.815C105.565 475.475 104.895 475.305 103.975 475.305H101.595L100.615 479.845H103.725C104.605 479.845 105.305 479.615 105.845 479.155C106.395 478.695 106.665 478.075 106.665 477.285C106.665 476.645 106.445 476.145 106.005 475.815ZM167.565 476.075L164.005 482.075H168.675L167.565 476.075ZM230.775 476.075L227.205 482.075H231.885L230.775 476.075ZM305.215 477.295C304.835 476.635 304.295 476.125 303.605 475.755C302.925 475.395 302.135 475.215 301.245 475.215C300.445 475.215 299.705 475.365 299.035 475.665C298.355 475.965 297.765 476.385 297.255 476.915C296.755 477.455 296.365 478.075 296.085 478.775C295.805 479.485 295.665 480.245 295.665 481.055C295.665 481.955 295.865 482.745 296.255 483.405C296.645 484.075 297.185 484.585 297.865 484.945C298.545 485.315 299.335 485.495 300.215 485.495C301.015 485.495 301.755 485.345 302.435 485.045C303.105 484.745 303.695 484.325 304.205 483.795C304.705 483.255 305.095 482.635 305.375 481.925C305.645 481.215 305.785 480.455 305.785 479.645C305.785 478.755 305.595 477.965 305.215 477.295ZM330.475 404.925L316.545 432.455H332.265L330.475 404.925ZM330.475 404.925L316.545 432.455H332.265L330.475 404.925ZM305.215 477.295C304.835 476.635 304.295 476.125 303.605 475.755C302.925 475.395 302.135 475.215 301.245 475.215C300.445 475.215 299.705 475.365 299.035 475.665C298.355 475.965 297.765 476.385 297.255 476.915C296.755 477.455 296.365 478.075 296.085 478.775C295.805 479.485 295.665 480.245 295.665 481.055C295.665 481.955 295.865 482.745 296.255 483.405C296.645 484.075 297.185 484.585 297.865 484.945C298.545 485.315 299.335 485.495 300.215 485.495C301.015 485.495 301.755 485.345 302.435 485.045C303.105 484.745 303.695 484.325 304.205 483.795C304.705 483.255 305.095 482.635 305.375 481.925C305.645 481.215 305.785 480.455 305.785 479.645C305.785 478.755 305.595 477.965 305.215 477.295ZM230.775 476.075L227.205 482.075H231.885L230.775 476.075ZM167.565 476.075L164.005 482.075H168.675L167.565 476.075ZM106.005 475.815C105.565 475.475 104.895 475.305 103.975 475.305H101.595L100.615 479.845H103.725C104.605 479.845 105.305 479.615 105.845 479.155C106.395 478.695 106.665 478.075 106.665 477.285C106.665 476.645 106.445 476.145 106.005 475.815ZM29.685 476.075L26.125 482.075H30.795L29.685 476.075ZM29.685 476.075L26.125 482.075H30.795L29.685 476.075ZM106.005 475.815C105.565 475.475 104.895 475.305 103.975 475.305H101.595L100.615 479.845H103.725C104.605 479.845 105.305 479.615 105.845 479.155C106.395 478.695 106.665 478.075 106.665 477.285C106.665 476.645 106.445 476.145 106.005 475.815ZM167.565 476.075L164.005 482.075H168.675L167.565 476.075ZM230.775 476.075L227.205 482.075H231.885L230.775 476.075ZM330.475 404.925L316.545 432.455H332.265L330.475 404.925ZM330.475 404.925L316.545 432.455H332.265L330.475 404.925ZM230.775 476.075L227.205 482.075H231.885L230.775 476.075ZM167.565 476.075L164.005 482.075H168.675L167.565 476.075ZM106.005 475.815C105.565 475.475 104.895 475.305 103.975 475.305H101.595L100.615 479.845H103.725C104.605 479.845 105.305 479.615 105.845 479.155C106.395 478.695 106.665 478.075 106.665 477.285C106.665 476.645 106.445 476.145 106.005 475.815ZM29.685 476.075L26.125 482.075H30.795L29.685 476.075ZM29.685 476.075L26.125 482.075H30.795L29.685 476.075ZM106.005 475.815C105.565 475.475 104.895 475.305 103.975 475.305H101.595L100.615 479.845H103.725C104.605 479.845 105.305 479.615 105.845 479.155C106.395 478.695 106.665 478.075 106.665 477.285C106.665 476.645 106.445 476.145 106.005 475.815ZM167.565 476.075L164.005 482.075H168.675L167.565 476.075ZM230.775 476.075L227.205 482.075H231.885L230.775 476.075ZM330.475 404.925L316.545 432.455H332.265L330.475 404.925ZM330.475 404.925L316.545 432.455H332.265L330.475 404.925ZM230.775 476.075L227.205 482.075H231.885L230.775 476.075ZM167.565 476.075L164.005 482.075H168.675L167.565 476.075ZM106.005 475.815C105.565 475.475 104.895 475.305 103.975 475.305H101.595L100.615 479.845H103.725C104.605 479.845 105.305 479.615 105.845 479.155C106.395 478.695 106.665 478.075 106.665 477.285C106.665 476.645 106.445 476.145 106.005 475.815ZM29.685 476.075L26.125 482.075H30.795L29.685 476.075ZM29.685 476.075L26.125 482.075H30.795L29.685 476.075ZM106.005 475.815C105.565 475.475 104.895 475.305 103.975 475.305H101.595L100.615 479.845H103.725C104.605 479.845 105.305 479.615 105.845 479.155C106.395 478.695 106.665 478.075 106.665 477.285C106.665 476.645 106.445 476.145 106.005 475.815ZM167.565 476.075L164.005 482.075H168.675L167.565 476.075ZM330.475 404.925L316.545 432.455H332.265L330.475 404.925ZM330.475 404.925L316.545 432.455H332.265L330.475 404.925ZM167.565 476.075L164.005 482.075H168.675L167.565 476.075ZM106.005 475.815C105.565 475.475 104.895 475.305 103.975 475.305H101.595L100.615 479.845H103.725C104.605 479.845 105.305 479.615 105.845 479.155C106.395 478.695 106.665 478.075 106.665 477.285C106.665 476.645 106.445 476.145 106.005 475.815ZM29.685 476.075L26.125 482.075H30.795L29.685 476.075ZM29.685 476.075L26.125 482.075H30.795L29.685 476.075ZM106.005 475.815C105.565 475.475 104.895 475.305 103.975 475.305H101.595L100.615 479.845H103.725C104.605 479.845 105.305 479.615 105.845 479.155C106.395 478.695 106.665 478.075 106.665 477.285C106.665 476.645 106.445 476.145 106.005 475.815ZM330.475 404.925L316.545 432.455H332.265L330.475 404.925ZM330.475 404.925L316.545 432.455H332.265L330.475 404.925ZM106.005 475.815C105.565 475.475 104.895 475.305 103.975 475.305H101.595L100.615 479.845H103.725C104.605 479.845 105.305 479.615 105.845 479.155C106.395 478.695 106.665 478.075 106.665 477.285C106.665 476.645 106.445 476.145 106.005 475.815ZM29.685 476.075L26.125 482.075H30.795L29.685 476.075ZM29.685 476.075L26.125 482.075H30.795L29.685 476.075ZM330.475 404.925L316.545 432.455H332.265L330.475 404.925ZM330.475 404.925L316.545 432.455H332.265L330.475 404.925ZM29.685 476.075L26.125 482.075H30.795L29.685 476.075ZM29.685 476.075L26.125 482.075H30.795L29.685 476.075ZM330.475 404.925L316.545 432.455H332.265L330.475 404.925ZM330.475 404.925L316.545 432.455H332.265L330.475 404.925ZM29.685 476.075L26.125 482.075H30.795L29.685 476.075ZM330.475 404.925L316.545 432.455H332.265L330.475 404.925ZM330.475 404.925L316.545 432.455H332.265L330.475 404.925ZM471.005 363.185H425.415C432.375 343.375 433.095 313.445 424.885 293.885C417.015 275.125 405.435 283.985 394.165 274.885C390.465 271.905 386.865 267.635 382.995 264.365C379.975 261.815 376.685 259.515 373.405 257.325C377.655 225.765 365.135 197.985 347.495 172.955C344.565 168.795 339.055 163.355 336.925 159.295C333.035 151.865 327.045 138.165 323.905 130.225C320.595 121.865 324.605 117.895 325.285 109.695C325.885 102.335 325.105 95.5853 323.585 88.4553C322.235 82.0853 321.715 81.3453 321.495 74.6553C321.125 63.2153 321.455 51.6753 319.595 40.3353C317.675 28.6553 311.615 18.8953 308.395 7.66528C307.075 3.09528 302.255 0.535279 297.705 1.94528C293.645 3.19528 289.785 5.04528 286.135 7.19528C284.325 8.25528 282.575 9.39528 280.855 10.5753C280.105 11.0953 279.365 11.6353 278.585 12.1153C278.075 12.4453 276.415 13.8153 275.825 13.7253C270.635 12.9653 265.185 11.7253 259.895 11.7853C255.305 11.8353 250.265 13.3753 245.885 13.7253C238.315 14.3153 230.165 12.7053 222.275 13.0653C219.215 13.2053 215.285 15.2353 212.295 14.0053C210.545 13.2853 208.985 11.5053 207.535 10.3253C204.685 7.99528 201.325 6.31528 198.045 4.68528C194.215 2.78528 190.225 1.16528 186.055 0.215279C181.415 -0.834721 176.795 2.05528 175.825 6.72528C174.805 11.6253 173.325 17.6753 171.755 20.4253C168.515 28.1653 166.975 36.5453 166.565 44.8953C166.325 49.6753 166.805 54.4553 166.595 59.2353C166.395 63.7653 164.475 68.2353 164.545 72.7253C164.585 75.4953 166.015 78.5253 165.845 80.9353C165.615 84.0453 162.855 90.1053 162.215 93.9353C159.575 109.675 163.525 122.195 170.925 135.855L158.985 165.315C143.655 185.725 133.375 211.935 134.625 237.875C134.885 243.255 136.285 249.075 136.565 254.435C136.985 262.565 135.905 270.585 134.635 278.565C124.985 280.735 114.925 281.625 105.165 283.675C78.455 289.285 55.585 297.775 48.215 326.845C45.065 339.265 46.985 350.875 44.705 363.185H12.505C7.18499 363.185 -0.665008 371.125 0.0449924 376.875L0.0749924 496.505C0.0749924 505.005 6.96499 511.885 15.455 511.885H467.715C476.195 511.885 483.075 505.025 483.095 496.545L483.445 374.355C483.265 369.065 475.865 363.185 471.005 363.185ZM320.105 142.315C324.145 150.695 333.585 172.525 333.585 181.125V194.205L333.875 193.585C335.765 189.525 337.145 185.245 337.975 180.835L338.695 176.985C355.535 197.985 365.355 224.285 362.915 251.595C357.125 249.365 351.685 246.265 345.855 244.095C330.185 238.295 313.635 236.475 297.235 233.735L306.155 224.175C297.505 227.155 274.935 233.065 273.055 219.335C270.355 199.545 289.175 185.895 299.405 171.825C307.315 160.955 312.735 148.455 316.365 135.535L320.105 142.315ZM265.985 180.795L269.915 171.985C282.865 172.975 284.895 158.055 294.035 152.755C291.275 166.135 280.845 180.535 265.985 180.795ZM169.775 98.3053C170.365 92.5753 174.355 85.6553 174.775 80.9353C174.995 78.3853 173.715 75.8453 173.535 73.3453C172.395 58.2953 181.655 42.0753 191.045 30.9453C192.435 29.2953 197.475 25.2753 197.685 23.1053V23.0853C189.635 29.1253 179.165 35.8553 172.345 46.8853L173.935 40.4453C173.935 40.4453 178.475 26.7153 180.165 22.7453C181.865 18.7753 184.805 8.63528 184.805 8.63528C188.685 9.50528 198.275 13.1353 204.615 19.0753C205.955 20.6153 207.485 22.5653 208.285 22.6953C216.795 20.4553 225.045 20.3153 233.775 20.7553C237.105 20.9153 240.425 22.1353 244.005 22.0553C248.995 21.9353 254.815 19.7853 259.935 19.4853C267.035 19.0453 273.055 20.9453 279.635 23.2153C280.385 22.1653 281.085 21.2053 281.805 20.3053C287.665 13.9253 296.235 10.9553 300.055 9.79528C300.055 9.79528 303.265 20.1353 305.255 23.9753C307.245 27.8053 312.785 41.1653 312.785 41.1653L314.895 47.5653C308.305 36.0553 297.985 29.1253 288.205 23.2153C291.145 26.0953 295.125 30.0453 296.475 32.0253C302.835 41.2553 311.315 55.1353 312.455 66.4153C312.905 70.7853 311.805 74.6753 311.875 78.4253C311.985 83.3953 316.315 91.6153 316.925 97.6653C318.155 109.885 315.785 123.015 307.445 132.345V123.305C307.445 119.365 306.835 115.445 305.645 111.675L305.525 111.305C305.355 124.955 297.365 149.475 280.935 150.215C269.315 150.745 245.565 130.705 244.305 119.275C243.155 108.855 247.095 110.765 254.065 106.715C258.015 104.415 262.915 101.115 262.805 95.9953L269.175 99.8153C266.455 90.6653 261.695 83.1753 252.305 80.0253C232.895 73.5253 217.775 84.4753 212.425 103.005L220.065 95.9953C220.115 100.855 224.495 104.265 228.345 106.525C232.685 109.065 238.585 109.585 238.625 116.075C238.685 128.585 215.035 150.605 202.505 149.595C189.475 148.545 182.865 124.515 181.805 113.855C180.845 113.985 180.755 116.605 180.625 117.445C179.915 121.965 180.475 126.875 178.945 131.065C170.955 121.735 168.495 110.415 169.775 98.3053ZM238.575 174.435C239.525 174.545 239.515 172.715 239.645 172.015C240.855 165.785 240.965 151.175 245.895 146.995C250.265 143.285 262.235 148.585 263.285 153.855C265.815 166.485 260.905 184.275 247.635 188.925C234.205 193.635 220.495 188.185 217.185 173.825C215.775 167.735 216.045 155.845 220.705 151.155C222.005 149.845 230.145 145.965 231.935 145.755C240.795 144.675 237.165 156.245 237.265 161.385C237.345 165.495 238.775 170.215 238.575 174.435ZM227.905 95.5953C227.015 95.3653 226.425 94.5353 226.485 93.6153C227.225 81.5953 256.925 82.7453 256.145 93.7753C256.035 95.4253 254.645 96.4653 253.015 95.9253C251.845 95.5353 249.125 90.2753 244.855 89.5953C238.375 88.5653 233.705 89.4553 229.905 94.8553C229.455 95.4953 228.655 95.7953 227.905 95.5953ZM238.555 97.2753L237.145 101.515C236.635 103.035 235.035 103.895 233.485 103.475L227.345 101.495C227.175 100.405 228.625 101.035 229.265 101.145C230.995 101.445 232.015 101.405 233.845 101.095C235.595 100.535 235.995 97.0853 238.555 97.2753ZM255.145 101.095L248.895 103.565C247.605 104.075 246.125 103.535 245.495 102.305C244.665 100.665 244.185 98.4053 244.305 97.2853C246.775 97.2053 246.525 100.105 247.995 101.125C248.315 101.345 248.715 101.405 249.095 101.385L255.135 101.105L255.145 101.095ZM211.785 179.525C198.995 175.425 191.815 161.815 188.835 149.565C190.585 150.935 192.505 152.645 193.905 154.365C198.205 159.635 201.095 171.345 209.225 169.325C209.075 172.875 210.145 176.415 211.785 179.525ZM160.455 182.085C161.525 185.595 161.855 190.165 164.585 192.925C162.635 177.065 169.855 161.055 176.385 147.005C178.485 152.115 180.145 157.555 182.535 162.545C184.575 166.805 188.225 171.135 189.925 174.925C192.875 181.475 193.025 186.595 197.755 193.235C200.165 196.605 207.125 202.215 208.105 205.215C209.215 208.645 209.595 218.315 208.425 221.765C204.005 234.785 185.735 227.065 177.995 221.615C180.205 226.165 182.205 230.905 185.625 234.695C171.695 241.715 166.105 256.635 160.645 270.285L147.385 275.825C147.575 268.955 148.555 262.015 148.005 255.115C147.475 248.545 145.205 242.015 144.795 235.355C143.615 216.055 149.665 197.835 160.455 182.085ZM63.815 317.575C65.255 316.435 68.875 321.565 68.295 322.365C65.995 323.355 64.245 322.835 61.925 322.365L63.815 317.575ZM57.435 347.595C57.545 341.945 57.025 336.205 58.105 330.665H70.535C72.445 330.255 77.905 323.175 77.855 321.415L70.315 309.405C81.355 298.915 99.485 295.255 114.205 292.715C129.355 290.085 144.255 291.295 158.015 284.225C194.295 265.595 206.445 250.685 250.975 249.005C291.265 247.505 335.675 246.815 369.885 270.465C376.355 274.935 390.865 289.565 397.105 290.435C402.655 291.215 405.355 289.675 410.415 293.695C419.145 300.605 420.805 313.945 421.585 324.295C419.695 322.345 419.255 319.335 417.875 316.855C411.745 305.725 402.525 298.645 392.635 310.955C384.435 321.155 384.365 334.525 380.165 346.315C377.005 355.175 375.615 355.925 366.355 357.365C356.895 358.845 347.145 359.375 337.765 359.345C330.265 359.305 322.895 359.025 315.415 358.725C314.645 358.695 313.035 359.215 313.185 358.095C328.615 355.885 344.695 357.015 358.475 348.855C362.555 346.435 366.485 343.705 368.025 338.965L340.615 337.365L369.295 334.165C371.165 333.525 374.905 322.215 374.405 321.745L354.325 321.095L343.795 319.835L376.165 316.805L385.245 300.695C377.135 301.395 368.845 302.885 360.715 303.275C339.315 304.275 312.935 300.695 293.635 311.425C289.195 313.895 284.685 317.655 280.985 321.085C274.235 311.465 265.135 303.205 252.615 308.045C230.615 316.535 227.355 350.575 226.385 370.775C221.465 371.455 216.425 372.305 211.475 372.755C195.565 374.195 169.545 375.825 154.235 373.245C129.305 369.045 103.555 370.205 78.195 367.655C75.145 367.345 58.145 365.535 57.145 363.835C56.045 360.145 58.055 355.705 58.105 352.035C58.125 350.695 57.405 349.265 57.435 347.595ZM415.215 336.725V352.345L411.835 333.725C409.615 326.365 403.635 318.775 397.075 327.525L392.875 335.445C393.785 329.115 398.355 313.525 407.235 319.825C410.365 322.045 415.215 333.095 415.215 336.725ZM298.165 326.095H310.225L313.305 316.595L313.945 314.635L314.585 316.595L317.665 326.095H329.725L319.975 333.175L323.695 344.645L313.945 337.555L304.195 344.645L307.915 333.175L298.165 326.095ZM273.635 348.845C273.375 345.815 272.295 341.295 271.415 338.315C266.645 322.285 255.105 317.785 244.615 332.575C244.005 330.995 245.795 327.965 246.735 326.405C254.645 313.145 266.145 316.855 272.175 329.255C277.155 339.485 276.855 351.275 274.075 362.045L273.635 361.605C273.385 357.445 273.985 352.945 273.635 348.845ZM33.935 393.365H46.855L37.165 439.255H62.825L60.365 450.895H21.775L33.925 393.365H33.935ZM31.575 487.305L30.975 483.995H25.135L23.215 487.305H20.655L29.035 473.405H31.435L34.025 487.305H31.575ZM60.735 487.305H58.555L60.665 477.425L54.925 484.305H53.265L50.395 476.965L48.235 487.305H46.195L49.135 473.405H51.325L54.625 481.915L61.565 473.405H63.675L60.735 487.305ZM80.065 393.365H92.985L80.825 450.895H67.915L80.065 393.365ZM86.015 475.365H79.255L78.455 479.125H84.295L83.905 480.975H78.065L77.145 485.315H83.975L83.555 487.305H74.505L77.445 473.405H86.425L86.015 475.365ZM108.355 479.175C107.965 479.805 107.435 480.315 106.755 480.695C106.085 481.085 105.325 481.335 104.485 481.445L107.475 487.305H104.875L102.115 481.705H100.225L99.045 487.305H96.815L99.755 473.405H104.395C105.365 473.405 106.195 473.555 106.865 473.845C107.535 474.145 108.045 474.565 108.405 475.105C108.755 475.655 108.935 476.295 108.935 477.025C108.935 477.835 108.745 478.555 108.355 479.175ZM122.395 487.305H120.165L123.115 473.405H125.335L122.395 487.305ZM100.035 450.895C94.255 450.895 91.875 448.855 91.875 444.695C91.875 443.585 92.045 442.305 92.385 440.865L100.285 403.395C101.735 396.595 104.875 393.365 112.185 393.365H147.705L145.315 404.835H115.415C113.205 404.835 112.525 405.435 112.015 407.985L105.805 437.295C105.725 437.715 105.645 438.145 105.645 438.405C105.645 439.505 106.235 439.845 107.935 439.845H126.375L129.175 426.765H117.795L119.745 417.495H143.195L136.145 450.895H100.035ZM148.055 476.665C147.685 476.215 147.195 475.865 146.595 475.625C145.995 475.385 145.295 475.255 144.515 475.255C143.685 475.255 142.935 475.405 142.275 475.715C141.605 476.015 141.045 476.445 140.565 476.995C140.085 477.535 139.725 478.175 139.475 478.895C139.215 479.615 139.095 480.395 139.095 481.235C139.095 482.075 139.285 482.865 139.655 483.495C140.015 484.125 140.555 484.595 141.245 484.935C141.935 485.275 142.755 485.435 143.715 485.435C144.325 485.435 144.925 485.355 145.515 485.175C146.105 484.995 146.675 484.725 147.235 484.365L147.875 486.335C147.225 486.745 146.515 487.065 145.755 487.275C144.995 487.495 144.185 487.595 143.315 487.595C141.995 487.595 140.835 487.355 139.845 486.855C138.865 486.365 138.095 485.665 137.545 484.765C136.995 483.855 136.715 482.775 136.715 481.535C136.715 480.375 136.925 479.285 137.325 478.265C137.725 477.255 138.285 476.355 138.995 475.585C139.715 474.815 140.545 474.205 141.505 473.765C142.455 473.325 143.495 473.105 144.615 473.105C145.735 473.105 146.675 473.255 147.475 473.565C148.275 473.865 148.955 474.325 149.535 474.955L148.055 476.665ZM169.455 487.305L168.855 483.995H163.015L161.095 487.305H158.535L166.915 473.405H169.305L171.905 487.305H169.455ZM195.385 487.305H193.285L188.445 476.975L186.245 487.305H184.075L187.015 473.405H189.135L193.985 483.625L196.155 473.405H198.325L195.385 487.305ZM193.755 450.895H180.835L185.855 427.095H163.335L158.325 450.895H145.405L157.555 393.365H170.475L165.635 416.305H188.145L192.995 393.365H205.905L193.755 450.895ZM232.655 487.305L232.065 483.995H226.225L224.305 487.305H221.745L230.115 473.405H232.515L235.115 487.305H232.655ZM227.575 450.895H214.665L224.435 404.665H210.495L212.875 393.365H253.745L251.365 404.665H237.345L227.575 450.895ZM259.185 481.885C258.955 483.015 258.555 484.005 257.995 484.855C257.445 485.725 256.735 486.395 255.875 486.875C255.015 487.355 253.995 487.595 252.835 487.595C251.675 487.595 250.605 487.365 249.785 486.895C248.975 486.425 248.405 485.745 248.075 484.895C247.745 484.035 247.705 483.035 247.955 481.885L249.745 473.405H251.985L250.185 481.865C249.935 483.025 250.055 483.915 250.535 484.555C251.025 485.185 251.855 485.495 253.025 485.495C253.985 485.495 254.815 485.205 255.515 484.635C256.205 484.055 256.685 483.135 256.955 481.865L258.755 473.405H260.985L259.185 481.885ZM283.005 475.455H279.095L276.575 487.305H274.355L276.865 475.455H272.955L273.375 473.405H283.425L283.005 475.455ZM290.455 450.895H257.915C252.135 450.895 249.835 448.855 249.835 444.605C249.835 443.495 249.925 442.305 250.265 440.865L258.165 403.395C259.605 396.595 262.845 393.365 270.055 393.365H302.435L300.055 404.835H274.055C271.335 404.835 270.655 405.525 270.145 408.065L264.115 436.115C264.025 436.615 263.945 437.045 263.945 437.465C263.945 438.745 264.625 439.255 266.755 439.255H292.915L290.455 450.895ZM307.495 482.655C307.075 483.625 306.485 484.485 305.735 485.225C304.985 485.965 304.125 486.555 303.145 486.965C302.165 487.395 301.125 487.595 300.015 487.595C299.015 487.595 298.115 487.445 297.295 487.115C296.475 486.795 295.775 486.355 295.175 485.775C294.585 485.205 294.125 484.525 293.805 483.745C293.485 482.965 293.325 482.125 293.325 481.205C293.325 480.085 293.535 479.035 293.955 478.055C294.375 477.085 294.965 476.215 295.715 475.475C296.455 474.735 297.315 474.155 298.295 473.735C299.265 473.315 300.315 473.105 301.425 473.105C302.425 473.105 303.335 473.265 304.155 473.595C304.975 473.925 305.685 474.385 306.275 474.965C306.875 475.545 307.335 476.225 307.655 477.005C307.965 477.785 308.135 478.635 308.135 479.535C308.135 480.645 307.915 481.685 307.495 482.655ZM335.985 487.305H333.755L336.705 473.405H338.915L335.985 487.305ZM333.275 450.895L332.685 441.975H311.955L307.535 450.895H295.045L324.945 393.365H341.865L346.285 450.895H333.275ZM364.295 487.305H362.125L364.225 477.425L358.495 484.305H356.835L353.965 476.975L351.795 487.305H349.765L352.705 473.405H354.885L358.195 481.915L365.135 473.405H367.245L364.295 487.305ZM389.555 479.755C389.095 480.455 388.455 481.005 387.645 481.385C386.835 481.765 385.895 481.945 384.835 481.945H381.435L380.295 487.305H378.075L381.015 473.405H385.405C386.405 473.405 387.275 473.555 387.995 473.865C388.715 474.175 389.275 474.605 389.665 475.185C390.055 475.755 390.255 476.425 390.255 477.205C390.255 478.195 390.025 479.045 389.555 479.755ZM386.735 450.895L390.635 432.115C390.725 431.605 390.805 431.185 390.805 430.835C390.805 429.815 390.125 429.485 388.425 429.485H369.815L365.315 450.895H352.405L361.315 408.825H374.235L371.855 419.965H389.535C391.995 419.965 392.595 419.365 393.095 416.995L395.135 407.645C395.225 407.135 395.315 406.625 395.315 406.285C395.315 404.925 394.545 404.585 392.675 404.585H362.175L364.555 393.365H401.085C406.955 393.365 409.415 395.485 409.415 399.745C409.415 400.765 409.245 401.865 408.995 403.135L406.355 415.625C405.085 421.495 401.515 423.625 397.525 424.045C401.085 424.295 403.975 425.485 403.975 429.055C403.975 429.645 403.975 430.245 403.805 430.925L399.645 450.895H386.735ZM415.655 482.655C415.235 483.625 414.645 484.485 413.895 485.225C413.145 485.965 412.285 486.555 411.305 486.965C410.325 487.395 409.275 487.595 408.175 487.595C407.175 487.595 406.265 487.445 405.455 487.115C404.635 486.795 403.925 486.355 403.325 485.775C402.735 485.205 402.285 484.525 401.955 483.745C401.645 482.965 401.485 482.125 401.485 481.205C401.485 480.085 401.695 479.035 402.115 478.055C402.535 477.085 403.125 476.215 403.875 475.475C404.615 474.735 405.475 474.155 406.455 473.735C407.425 473.315 408.475 473.105 409.585 473.105C410.585 473.105 411.495 473.265 412.315 473.595C413.125 473.925 413.845 474.385 414.435 474.965C415.035 475.545 415.485 476.225 415.805 477.005C416.125 477.785 416.295 478.635 416.295 479.535C416.295 480.645 416.075 481.685 415.655 482.655ZM439.255 479.175C438.865 479.805 438.335 480.315 437.655 480.695C436.975 481.085 436.225 481.335 435.385 481.445L438.385 487.305H435.785L433.025 481.705H431.125L429.935 487.305H427.725L430.655 473.405H435.295C436.265 473.405 437.085 473.555 437.755 473.845C438.435 474.145 438.955 474.565 439.305 475.105C439.665 475.655 439.845 476.295 439.845 477.025C439.845 477.835 439.645 478.555 439.255 479.175ZM462.365 475.455H458.445L455.945 487.305H453.715L456.225 475.455H452.315L452.745 473.405H462.785L462.365 475.455ZM463.965 404.335H433.455C431.675 404.335 431.005 405.005 430.565 407.045L428.965 414.605C428.875 415.035 428.785 415.375 428.785 415.715C428.785 416.645 429.295 416.995 430.655 416.995H453.685C458.355 416.995 460.395 419.115 460.395 422.765C460.395 423.445 460.305 424.295 460.145 425.145L456.835 440.865C455.385 447.665 452.245 450.895 444.935 450.895H408.475L410.865 439.675H441.535C443.575 439.675 444.425 438.995 444.845 436.875L446.545 428.885C446.635 428.545 446.635 428.205 446.635 427.945C446.635 426.845 446.035 426.425 444.425 426.425H421.735C417.145 426.425 415.105 424.295 415.105 420.735C415.105 419.965 415.195 419.195 415.365 418.265L418.515 403.395C419.945 396.595 423.005 393.365 430.485 393.365H466.255L463.965 404.335ZM65.905 357.305C65.395 356.795 65.035 353.615 65.085 352.695C65.265 349.485 73.095 336.595 75.425 333.655C79.945 327.955 83.845 327.875 90.915 327.465C101.875 326.815 120.325 326.635 130.955 328.295C144.715 330.445 148.155 345.495 158.975 348.735C173.345 353.035 194.965 344.305 202.815 362.815L199.365 364.485C188.375 363.555 176.005 367.075 165.375 364.015C159.395 362.295 159.195 362.355 152.805 361.915C128.735 360.245 104.255 361.485 80.105 359.365C78.155 359.195 66.525 357.935 65.895 357.305H65.905ZM267.415 287.135C233.125 287.545 198.795 286.935 164.595 287.935C172.635 282.125 181.315 276.965 190.085 272.305C215.725 258.685 230.305 257.415 259.265 256.665C272.145 256.335 285.215 256.265 297.875 258.615C285.955 266.165 282.025 283.685 267.415 287.135ZM284.485 288.575C291.955 279.945 299.195 264.575 310.645 260.855C326.495 255.715 351.435 265.835 364.395 275.305C367.795 277.795 371.335 280.465 373.045 284.445L362.615 289.235L284.485 288.575ZM230.275 304.525C214.035 303.815 197.915 306.495 182.445 311.225C171.235 314.645 158.265 319.435 149.935 327.795C162.295 334.395 174.845 334.545 188.505 333.215C208.105 331.305 218.285 326.995 228.895 309.835C229.935 308.145 230.535 306.565 230.275 304.525ZM187.255 328.145C184.655 328.325 166.625 328.275 165.865 327.475C164.525 326.075 168.175 324.485 169.045 323.955C181.065 316.745 199.865 313.575 213.695 312.815C207.545 323.435 199.345 327.335 187.255 328.145ZM288.955 74.3053C288.915 82.6853 277.685 80.9653 274.905 75.5853C274.765 75.3253 274.115 76.1453 273.535 76.9753C272.855 77.9453 272.875 79.2353 273.595 80.1653C276.375 83.7653 283.855 91.4153 285.425 92.8153C287.915 95.0253 290.735 96.8853 293.415 98.8553C291.785 100.365 283.625 96.9453 283.215 97.2653L287.035 109.375C283.005 104.195 280.635 97.7953 277.105 92.2153C274.555 88.1953 270.765 82.9153 267.285 79.7153C264.325 77.0053 261.035 74.2153 258.265 71.0853C257.135 69.8153 254.235 64.9353 254.845 63.4653C258.555 67.5753 263.265 73.8953 268.555 75.5853C271.515 63.3253 287.185 65.3453 294.615 72.6953L288.975 74.3053H288.955ZM190.385 72.3953C197.525 64.8553 213.625 63.4953 216.575 75.5853C222.775 71.9353 228.525 68.8553 233.475 63.4753C230.965 71.4853 222.455 74.4953 216.605 79.4353C206.965 87.5653 199.655 100.985 195.215 112.575C193.935 112.565 194.665 110.005 194.765 109.255C195.345 104.885 197.245 100.835 198.405 96.6453L192.035 98.2453C195.445 95.1253 211.925 80.6153 211.505 76.8153C211.415 75.9753 210.875 74.5253 209.895 74.3253C208.095 82.5253 195.255 82.2653 195.855 73.0453L190.395 72.4053L190.385 72.3953ZM241.765 57.0853C240.865 51.1353 238.555 45.9553 240.795 39.8653L243.025 34.1253V52.9353L241.755 57.0753L241.765 57.0853ZM265.995 59.0053C268.475 50.8853 280.135 50.6653 285.115 56.4453C278.695 53.7353 271.605 55.1453 265.995 59.0053ZM200.315 55.4953C204.645 52.5453 216.705 49.8253 216.885 57.7253C211.415 54.8753 206.365 54.7053 200.315 55.4953ZM262.165 41.7953L251.965 49.4453C251.725 44.1153 257.405 41.3053 262.165 41.7953ZM232.825 48.7953L223.905 41.1453C228.785 40.9053 233.185 43.4153 232.825 48.7953Z" fill="black"/>
</svg>
